<svg width="118" height="44" viewBox="0 0 118 44" fill="none" xmlns="http://www.w3.org/2000/svg">
<path d="M56.5039 11.3008H51.5703V7.99609C51.5703 7.03516 51.5156 6.4375 51.4062 6.20312C51.3047 5.96094 51.0742 5.83984 50.7148 5.83984C50.3086 5.83984 50.0508 5.98437 49.9414 6.27344C49.832 6.5625 49.7773 7.1875 49.7773 8.14844V16.9609C49.7773 17.8828 49.832 18.4844 49.9414 18.7656C50.0508 19.0469 50.2969 19.1875 50.6797 19.1875C51.0469 19.1875 51.2852 19.0469 51.3945 18.7656C51.5117 18.4844 51.5703 17.8242 51.5703 16.7852V14.4062H56.5039V15.1445C56.5039 17.1055 56.3633 18.4961 56.082 19.3164C55.8086 20.1367 55.1953 20.8555 54.2422 21.4727C53.2969 22.0898 52.1289 22.3984 50.7383 22.3984C49.293 22.3984 48.1016 22.1367 47.1641 21.6133C46.2266 21.0898 45.6055 20.3672 45.3008 19.4453C44.9961 18.5156 44.8438 17.1211 44.8438 15.2617V9.71875C44.8438 8.35156 44.8906 7.32812 44.9844 6.64844C45.0781 5.96094 45.3555 5.30078 45.8164 4.66797C46.2852 4.03516 46.9297 3.53906 47.75 3.17969C48.5781 2.8125 49.5273 2.62891 50.5977 2.62891C52.0508 2.62891 53.25 2.91016 54.1953 3.47266C55.1406 4.03516 55.7617 4.73828 56.0586 5.58203C56.3555 6.41797 56.5039 7.72266 56.5039 9.49609V11.3008ZM66.793 3.02734L69.6172 22H64.5664L64.3203 18.5898H62.5508L62.2578 22H57.1484L59.6562 3.02734H66.793ZM64.1797 15.2266C63.9297 13.0781 63.6797 10.4258 63.4297 7.26953C62.9297 10.8945 62.6172 13.5469 62.4922 15.2266H64.1797ZM70.4609 3.02734H73.9531C76.2812 3.02734 77.8555 3.11719 78.6758 3.29688C79.5039 3.47656 80.1758 3.9375 80.6914 4.67969C81.2148 5.41406 81.4766 6.58984 81.4766 8.20703C81.4766 9.68359 81.293 10.6758 80.9258 11.1836C80.5586 11.6914 79.8359 11.9961 78.7578 12.0977C79.7344 12.3398 80.3906 12.6641 80.7266 13.0703C81.0625 13.4766 81.2695 13.8516 81.3477 14.1953C81.4336 14.5312 81.4766 15.4648 81.4766 16.9961V22H76.8945V15.6953C76.8945 14.6797 76.8125 14.0508 76.6484 13.8086C76.4922 13.5664 76.0742 13.4453 75.3945 13.4453V22H70.4609V3.02734ZM75.3945 6.27344V10.4922C75.9492 10.4922 76.3359 10.418 76.5547 10.2695C76.7812 10.1133 76.8945 9.61719 76.8945 8.78125V7.73828C76.8945 7.13672 76.7852 6.74219 76.5664 6.55469C76.3555 6.36719 75.9648 6.27344 75.3945 6.27344ZM83.3984 3.02734H87.0898C89.4727 3.02734 91.082 3.13672 91.918 3.35547C92.7617 3.57422 93.4023 3.93359 93.8398 4.43359C94.2773 4.93359 94.5508 5.49219 94.6602 6.10938C94.7695 6.71875 94.8242 7.92188 94.8242 9.71875V16.3633C94.8242 18.0664 94.7422 19.207 94.5781 19.7852C94.4219 20.3555 94.1445 20.8047 93.7461 21.1328C93.3477 21.4531 92.8555 21.6797 92.2695 21.8125C91.6836 21.9375 90.8008 22 89.6211 22H83.3984V3.02734ZM88.332 6.27344V18.7539C89.043 18.7539 89.4805 18.6133 89.6445 18.332C89.8086 18.043 89.8906 17.2656 89.8906 16V8.62891C89.8906 7.76953 89.8633 7.21875 89.8086 6.97656C89.7539 6.73437 89.6289 6.55859 89.4336 6.44922C89.2383 6.33203 88.8711 6.27344 88.332 6.27344ZM111.43 13.5918V17.3242L109.871 18.3086L111.812 22H106.713L106.043 20.7695C104.329 21.8997 102.707 22.4648 101.176 22.4648C99.5716 22.4648 98.3366 21.9316 97.4707 20.8652C96.6048 19.7988 96.1719 18.5137 96.1719 17.0098C96.1719 15.8066 96.4271 14.8633 96.9375 14.1797C97.4479 13.4961 98.2135 12.9401 99.2344 12.5117C97.776 11.4635 97.0469 10.0462 97.0469 8.25977C97.0469 6.7194 97.5664 5.47982 98.6055 4.54102C99.6445 3.60221 101.076 3.13281 102.898 3.13281C104.539 3.13281 105.829 3.5931 106.768 4.51367C107.715 5.43424 108.189 6.60547 108.189 8.02734C108.189 9.52214 107.615 10.8483 106.467 12.0059L108.422 15.5332L111.43 13.5918ZM102.912 9.70898C103.532 8.89779 103.842 8.12305 103.842 7.38477C103.842 7.06576 103.751 6.77409 103.568 6.50977C103.386 6.24544 103.131 6.11328 102.803 6.11328C102.502 6.11328 102.274 6.21354 102.119 6.41406C101.964 6.61458 101.887 6.91992 101.887 7.33008C101.887 8.18685 102.229 8.97982 102.912 9.70898ZM104.156 18.2676L102.365 15.2871C101.682 15.9069 101.34 16.5768 101.34 17.2969C101.34 17.8164 101.445 18.2083 101.654 18.4727C101.873 18.7279 102.192 18.8555 102.611 18.8555C103.058 18.8555 103.573 18.6595 104.156 18.2676ZM44.9844 23.0273H49.9062C51.4609 23.0273 52.6367 23.1484 53.4336 23.3906C54.2383 23.6328 54.8867 24.125 55.3789 24.8672C55.8711 25.6016 56.1172 26.7891 56.1172 28.4297C56.1172 29.5391 55.9414 30.3125 55.5898 30.75C55.2461 31.1875 54.5625 31.5234 53.5391 31.7578C54.6797 32.0156 55.4531 32.4453 55.8594 33.0469C56.2656 33.6406 56.4688 34.5547 56.4688 35.7891V37.5469C56.4688 38.8281 56.3203 39.7773 56.0234 40.3945C55.7344 41.0117 55.2695 41.4336 54.6289 41.6602C53.9883 41.8867 52.6758 42 50.6914 42H44.9844V23.0273ZM49.918 26.2734V30.4922C50.1289 30.4844 50.293 30.4805 50.4102 30.4805C50.8945 30.4805 51.2031 30.3633 51.3359 30.1289C51.4688 29.8867 51.5352 29.2031 51.5352 28.0781C51.5352 27.4844 51.4805 27.0703 51.3711 26.8359C51.2617 26.5938 51.1172 26.4414 50.9375 26.3789C50.7656 26.3164 50.4258 26.2812 49.918 26.2734ZM49.918 33.4453V38.7539C50.6133 38.7305 51.0547 38.6211 51.2422 38.4258C51.4375 38.2305 51.5352 37.75 51.5352 36.9844V35.2148C51.5352 34.4023 51.4492 33.9102 51.2773 33.7383C51.1055 33.5664 50.6523 33.4688 49.918 33.4453ZM69.5234 34.1367C69.5234 36.043 69.4766 37.3945 69.3828 38.1914C69.2969 38.9805 69.0156 39.7031 68.5391 40.3594C68.0703 41.0156 67.4336 41.5195 66.6289 41.8711C65.8242 42.2227 64.8867 42.3984 63.8164 42.3984C62.8008 42.3984 61.8867 42.2344 61.0742 41.9062C60.2695 41.5703 59.6211 41.0703 59.1289 40.4062C58.6367 39.7422 58.3438 39.0195 58.25 38.2383C58.1562 37.457 58.1094 36.0898 58.1094 34.1367V30.8906C58.1094 28.9844 58.1523 27.6367 58.2383 26.8477C58.332 26.0508 58.6133 25.3242 59.082 24.668C59.5586 24.0117 60.1992 23.5078 61.0039 23.1562C61.8086 22.8047 62.7461 22.6289 63.8164 22.6289C64.832 22.6289 65.7422 22.7969 66.5469 23.1328C67.3594 23.4609 68.0117 23.957 68.5039 24.6211C68.9961 25.2852 69.2891 26.0078 69.3828 26.7891C69.4766 27.5703 69.5234 28.9375 69.5234 30.8906V34.1367ZM64.5898 27.9023C64.5898 27.0195 64.5391 26.457 64.4375 26.2148C64.3438 25.9648 64.1445 25.8398 63.8398 25.8398C63.582 25.8398 63.3828 25.9414 63.2422 26.1445C63.1094 26.3398 63.043 26.9258 63.043 27.9023V36.7617C63.043 37.8633 63.0859 38.543 63.1719 38.8008C63.2656 39.0586 63.4766 39.1875 63.8047 39.1875C64.1406 39.1875 64.3555 39.0391 64.4492 38.7422C64.543 38.4453 64.5898 37.7383 64.5898 36.6211V27.9023ZM79.8945 23.0273L82.7188 42H77.668L77.4219 38.5898H75.6523L75.3594 42H70.25L72.7578 23.0273H79.8945ZM77.2812 35.2266C77.0312 33.0781 76.7812 30.4258 76.5312 27.2695C76.0312 30.8945 75.7188 33.5469 75.5938 35.2266H77.2812ZM83.5625 23.0273H87.0547C89.3828 23.0273 90.957 23.1172 91.7773 23.2969C92.6055 23.4766 93.2773 23.9375 93.793 24.6797C94.3164 25.4141 94.5781 26.5898 94.5781 28.207C94.5781 29.6836 94.3945 30.6758 94.0273 31.1836C93.6602 31.6914 92.9375 31.9961 91.8594 32.0977C92.8359 32.3398 93.4922 32.6641 93.8281 33.0703C94.1641 33.4766 94.3711 33.8516 94.4492 34.1953C94.5352 34.5312 94.5781 35.4648 94.5781 36.9961V42H89.9961V35.6953C89.9961 34.6797 89.9141 34.0508 89.75 33.8086C89.5938 33.5664 89.1758 33.4453 88.4961 33.4453V42H83.5625V23.0273ZM88.4961 26.2734V30.4922C89.0508 30.4922 89.4375 30.418 89.6562 30.2695C89.8828 30.1133 89.9961 29.6172 89.9961 28.7812V27.7383C89.9961 27.1367 89.8867 26.7422 89.668 26.5547C89.457 26.3672 89.0664 26.2734 88.4961 26.2734ZM96.5 23.0273H100.191C102.574 23.0273 104.184 23.1367 105.02 23.3555C105.863 23.5742 106.504 23.9336 106.941 24.4336C107.379 24.9336 107.652 25.4922 107.762 26.1094C107.871 26.7188 107.926 27.9219 107.926 29.7188V36.3633C107.926 38.0664 107.844 39.207 107.68 39.7852C107.523 40.3555 107.246 40.8047 106.848 41.1328C106.449 41.4531 105.957 41.6797 105.371 41.8125C104.785 41.9375 103.902 42 102.723 42H96.5V23.0273ZM101.434 26.2734V38.7539C102.145 38.7539 102.582 38.6133 102.746 38.332C102.91 38.043 102.992 37.2656 102.992 36V28.6289C102.992 27.7695 102.965 27.2188 102.91 26.9766C102.855 26.7344 102.73 26.5586 102.535 26.4492C102.34 26.332 101.973 26.2734 101.434 26.2734Z" fill="#ECDEF6"/>
<path d="M14.7709 20.1464L23.6941 19.9283M14.7709 20.1464L18.9507 27.1682M14.7709 20.1464L18.9507 15M14.7709 20.1464L12 18.053M14.7709 20.1464L12 25.2056M23.6941 19.9283L18.9507 27.1682M23.6941 19.9283L18.9507 15M23.6941 19.9283L24.7273 18.3583M23.6941 19.9283L24.7273 25.7726M18.9507 27.1682L12 25.2056M18.9507 27.1682L17.8235 29M18.9507 27.1682L24.7273 25.7726M18.9507 15L24.7273 18.3583M18.9507 15L12 18.053M24.7273 18.3583V25.7726M12 18.053V25.2056M12 25.2056L17.8235 29M17.8235 29L24.7273 25.7726" stroke="#ECDEF6" stroke-width="0.9" stroke-linecap="round" stroke-linejoin="round"/>
<path d="M33.2081 10.037C28.387 11.1545 26.6951 8.3089 25.2818 7.68969C23.8684 7.07048 21.8799 7.58763 21.8799 7.58763C21.8799 7.58763 19.8035 9.10643 18.4098 10.3432C17.0574 11.0716 16.2763 11.2979 14.7698 10.7854C14.7698 10.7854 20.9612 5.54651 21.2674 5.27436C21.5736 5.00221 26.7784 4.18575 26.7784 4.18575M15.2461 11.0576C15.2461 11.0576 13.7492 12.0781 13.0689 12.4183C12.3885 12.7585 11.1963 12.7087 10.1433 12.1122C10.1433 12.1122 18.75 4.83212 19.0562 4.66203M20.9272 8.54016C22.6718 9.38989 23.876 9.15745 26.1321 8.40408M16.2326 4.96817C16.2326 4.96817 12.4889 6.18539 11.8101 6.22687C11.1314 6.26834 10.6073 6.03602 9.95018 5.17651C9.95018 5.17651 18.1717 2.38275 18.784 2.38273C19.3963 2.38272 22.6281 2.68891 22.6281 2.68891M12.4905 10.037C11.0277 10.7174 9.95893 10.3487 9 9.69606C9 9.69606 17.9631 3.80301 18.2737 3.67546C18.2737 3.67546 24.261 2.24665 26.3022 2.00853C28.3433 1.77042 34.7048 6.60108 39.8077 5.75061M18.6139 10.3432C20.8193 11.2864 22.356 12.1462 24.2611 12.7585C26.1661 13.3708 33.7363 12.6399 39.8077 12.5204" stroke="#ECDEF6" stroke-width="0.9" stroke-linecap="round" stroke-linejoin="round"/>
<path d="M7.59947 33.963C12.4206 32.8455 14.1125 35.6911 15.5259 36.3103C16.9392 36.9295 18.9277 36.4124 18.9277 36.4124C18.9277 36.4124 21.0041 34.8936 22.3978 33.6568C23.7503 32.9284 24.5314 32.7021 26.0378 33.2146C26.0378 33.2146 19.8464 38.4535 19.5402 38.7256C19.2341 38.9978 14.0292 39.8142 14.0292 39.8142M25.5615 32.9424C25.5615 32.9424 27.0584 31.9219 27.7387 31.5817C28.4191 31.2415 29.6113 31.2913 30.6644 31.8878C30.6644 31.8878 22.0576 39.1679 21.7514 39.338M19.8804 35.4598C18.1358 34.6101 16.9316 34.8426 14.6755 35.5959M24.575 39.0318C24.575 39.0318 28.3187 37.8146 28.9975 37.7731C29.6762 37.7317 30.2003 37.964 30.8574 38.8235C30.8574 38.8235 22.6359 41.6173 22.0236 41.6173C21.4113 41.6173 18.1795 41.3111 18.1795 41.3111M28.3171 33.963C29.7799 33.2826 30.8487 33.6513 31.8076 34.3039C31.8076 34.3039 22.8445 40.197 22.5339 40.3245C22.5339 40.3245 16.5466 41.7534 14.5054 41.9915C12.4643 42.2296 6.10279 37.3989 0.999964 38.2494M22.1937 33.6568C19.9883 32.7136 18.4516 31.8538 16.5466 31.2415C14.6415 30.6292 7.07128 31.3601 0.999954 31.4796" stroke="#ECDEF6" stroke-width="0.9" stroke-linecap="round" stroke-linejoin="round"/>
</svg>
