<svg aria-hidden="true" style="position: absolute; width: 0; height: 0; overflow: hidden;" version="1.1" xmlns="http://www.w3.org/2000/svg" xmlns:xlink="http://www.w3.org/1999/xlink">
<defs>
<symbol id="icon-arrow-right-purple" viewBox="0 0 32 32">
<path fill="#6a2ecb" style="fill: var(--color1, #6a2ecb)" d="M22.334 16.88l-10.667 12c-0.486 0.552-1.327 0.605-1.88 0.12-0.552-0.486-0.605-1.327-0.12-1.88l9.88-11.12-9.88-11.12c-0.448-0.556-0.378-1.366 0.158-1.837s1.348-0.437 1.842 0.077l10.667 12c0.442 0.503 0.442 1.257 0 1.76z"></path>
</symbol>
<symbol id="icon-admin" viewBox="0 0 32 32">
<path fill="#ecdef6" style="fill: var(--color2, #ecdef6)" d="M22.667 13.333c0 1.768-0.702 3.464-1.953 4.714s-2.946 1.953-4.714 1.953h1.333c6.627 0 12 5.373 12 12 0 0.736-0.597 1.333-1.333 1.333h-24c-0.736 0-1.333-0.597-1.333-1.333 0-6.627 5.373-12 12-12h1.333c-3.682 0-6.667-2.985-6.667-6.667s2.985-6.667 6.667-6.667c3.682 0 6.667 2.985 6.667 6.667zM14.667 22.667c-4.641-0.001-8.577 3.407-9.24 8h21.147c-0.663-4.593-4.599-8.001-9.24-8h-2.667zM12 13.333c0 2.209 1.791 4 4 4 1.061 0 2.078-0.421 2.828-1.172s1.172-1.768 1.172-2.828c0-2.209-1.791-4-4-4s-4 1.791-4 4z"></path>
<path fill="none" stroke="#ecdef6" style="stroke: var(--color2, #ecdef6)" stroke-linejoin="miter" stroke-linecap="butt" stroke-miterlimit="4" stroke-width="2" d="M16 1c8.284 0 15 6.716 15 15s-6.716 15-15 15c-8.284 0-15-6.716-15-15s6.716-15 15-15z"></path>
</symbol>
<symbol id="icon-arrow-down" viewBox="0 0 32 32">
<path fill="#ecdef6" style="fill: var(--color2, #ecdef6)" d="M28.856 11.798l-11.636 10.343c-0.488 0.429-1.219 0.429-1.707 0l-11.636-10.343c-0.499-0.479-0.532-1.267-0.075-1.787s1.243-0.587 1.782-0.153l10.783 9.581 10.783-9.581c0.343-0.329 0.839-0.444 1.291-0.298s0.789 0.528 0.876 0.995c0.087 0.467-0.090 0.945-0.46 1.243z"></path>
</symbol>
<symbol id="icon-arrow-down-dark" viewBox="0 0 32 32">
<path d="M29.001 9.787c-0.486-0.552-1.327-0.605-1.88-0.12l-11.12 9.88-11.12-9.88c-0.556-0.448-1.366-0.378-1.837 0.158s-0.437 1.348 0.077 1.842l12 10.667c0.503 0.442 1.257 0.442 1.76 0l12-10.667c0.552-0.486 0.605-1.327 0.12-1.88z"></path>
</symbol>
<symbol id="icon-arrow-left" viewBox="0 0 32 32">
<path fill="#2b1047" style="fill: var(--color3, #2b1047)" d="M22.031 26.59c0.462 0.526 0.411 1.327-0.114 1.79s-1.327 0.411-1.79-0.114l-10.159-11.429c-0.421-0.479-0.421-1.197 0-1.676l10.159-11.429c0.293-0.364 0.762-0.537 1.221-0.452s0.834 0.415 0.977 0.86c0.143 0.444 0.030 0.932-0.293 1.268l-9.409 10.59 9.409 10.59z"></path>
</symbol>
<symbol id="icon-arrow-right" viewBox="0 0 32 32">
<path fill="#2b1047" style="fill: var(--color3, #2b1047)" d="M22.031 16.838l-10.159 11.429c-0.463 0.525-1.264 0.576-1.79 0.114s-0.576-1.264-0.114-1.79l9.41-10.59-9.409-10.59c-0.426-0.529-0.36-1.301 0.15-1.75s1.284-0.417 1.755 0.074l10.159 11.429c0.421 0.479 0.421 1.197 0 1.676z"></path>
</symbol>
<symbol id="icon-arrow-up" viewBox="0 0 32 32">
<path d="M2.999 22.213c0.486 0.552 1.327 0.605 1.88 0.12l11.12-9.88 11.12 9.88c0.556 0.448 1.366 0.378 1.837-0.158s0.437-1.348-0.077-1.842l-12-10.667c-0.503-0.442-1.257-0.442-1.76 0l-12 10.667c-0.552 0.486-0.605 1.327-0.12 1.88z"></path>
</symbol>
<symbol id="icon-arrow-up-dark" viewBox="0 0 32 32">
<path d="M3.393 22.025c0.472 0.535 1.287 0.587 1.823 0.116l10.783-9.581 10.783 9.581c0.539 0.434 1.324 0.367 1.782-0.153s0.424-1.307-0.075-1.787l-11.636-10.343c-0.488-0.429-1.219-0.429-1.707 0l-11.636 10.343c-0.535 0.472-0.587 1.287-0.116 1.823z"></path>
</symbol>
<symbol id="icon-burger" viewBox="0 0 32 32">
<path fill="#ecdef6" style="fill: var(--color2, #ecdef6)" d="M4.363 5.487h23.273c0.714 0 1.293-0.579 1.293-1.293s-0.579-1.293-1.293-1.293h-23.273c-0.714 0-1.293 0.579-1.293 1.293s0.579 1.293 1.293 1.293zM28.929 26.174c0 0.714-0.579 1.293-1.293 1.293h-23.273c-0.714 0-1.293-0.579-1.293-1.293s0.579-1.293 1.293-1.293h23.273c0.714 0 1.293 0.579 1.293 1.293zM4.363 14.537h23.273c0.714 0 1.293 0.579 1.293 1.293s-0.579 1.293-1.293 1.293h-23.273c-0.714 0-1.293-0.579-1.293-1.293s0.579-1.293 1.293-1.293z"></path>
</symbol>
<symbol id="icon-cart" viewBox="0 0 32 32">
<path fill="#ecdef6" style="fill: var(--color2, #ecdef6)" d="M0.34 16.223c-0.007 2.507 1.921 4.596 4.421 4.788l17.843 1.373c-0.175 1.596-0.67 1.596-1.516 1.596h-17.556c-0.481-0.018-0.944 0.181-1.261 0.543-1.685 0.963-2.433 2.998-1.773 4.823s2.539 2.909 4.45 2.57c1.911-0.34 3.3-2.005 3.292-3.946-0.002-0.268-0.029-0.535-0.080-0.798h6.544c-0.024 0.265-0.024 0.533 0 0.798 0 2.204 1.786 3.99 3.99 3.99s3.99-1.786 3.99-3.99c-0.001-0.323-0.044-0.645-0.128-0.958 3.32-0.782 3.32-4.229 3.32-6.097l2.952-17.684h1.835c0.881 0 1.596-0.715 1.596-1.596s-0.715-1.596-1.596-1.596h-3.192c-0.791-0.010-1.47 0.56-1.596 1.341l-0.287 1.851-23.764 1.596c-0.838 0.059-1.486 0.756-1.484 1.596v9.799zM3.532 27.97c0-0.441 0.357-0.798 0.798-0.798s0.798 0.357 0.798 0.798c0 0.441-0.357 0.798-0.798 0.798s-0.798-0.357-0.798-0.798zM18.694 27.172c-0.441 0-0.798 0.357-0.798 0.798s0.357 0.798 0.798 0.798c0.441 0 0.798-0.357 0.798-0.798s-0.357-0.798-0.798-0.798zM22.923 19.192h-0.112l-17.811-1.357c-0.831-0.067-1.471-0.762-1.468-1.596v-8.315l21.514-1.5-2.123 12.768z"></path>
</symbol>
<symbol id="icon-check-cart" viewBox="0 0 32 32">
<path fill="#ecdef6" style="fill: var(--color2, #ecdef6)" d="M10.773 21.333c0.147 1.333 0.56 1.333 1.267 1.333h14.627c0.378 0.004 0.737 0.169 0.987 0.453 1.408 0.804 2.033 2.505 1.481 4.029s-2.121 2.431-3.717 2.147-2.757-1.675-2.75-3.296c0.002-0.224 0.024-0.447 0.067-0.667h-5.4c0.043 0.22 0.065 0.443 0.067 0.667 0 1.841-1.492 3.333-3.333 3.333s-3.333-1.492-3.333-3.333c0.001-0.27 0.037-0.539 0.107-0.8-2.773-0.653-2.84-3.533-2.84-5.093l-2.467-14.773h-1.533c-0.736 0-1.333-0.597-1.333-1.333s0.597-1.333 1.333-1.333h2.667c0.661-0.009 1.228 0.468 1.333 1.12l0.24 1.547 19.853 1.333c0.7 0.049 1.242 0.632 1.24 1.333v8.2c0.006 2.095-1.605 3.839-3.693 4l-14.867 1.133zM13.479 13.933c-0.258-0.428-0.254-0.965 0.009-1.389s0.742-0.667 1.24-0.627c0.498 0.040 0.932 0.355 1.124 0.816l0.627 1.24 4-3.040c0.589-0.442 1.425-0.322 1.867 0.267s0.323 1.425-0.267 1.867l-5.333 4c-0.231 0.173-0.512 0.267-0.8 0.267-0.102 0.013-0.205 0.013-0.307 0-0.381-0.091-0.703-0.344-0.88-0.693l-1.28-2.707zM10.466 18.666l-1.773-10.667 17.973 1.253v6.947c0.002 0.697-0.532 1.278-1.227 1.333l-14.973 1.133zM14.026 25.333c-0.368 0-0.667 0.299-0.667 0.667s0.299 0.667 0.667 0.667c0.368 0 0.667-0.298 0.667-0.667 0-0.182-0.074-0.355-0.205-0.481s-0.307-0.193-0.489-0.186h0.027zM26.026 25.333c0.368 0 0.667 0.299 0.667 0.667h-0.027c0 0.358-0.282 0.652-0.64 0.667-0.368 0-0.667-0.298-0.667-0.667s0.299-0.667 0.667-0.667z"></path>
</symbol>
<symbol id="icon-close-black" viewBox="0 0 32 32">
<path d="M28.429 26.611c0.242 0.24 0.379 0.568 0.379 0.909s-0.136 0.668-0.379 0.909c-0.24 0.242-0.567 0.379-0.909 0.379s-0.668-0.136-0.909-0.379l-10.611-10.624-10.611 10.624c-0.24 0.242-0.567 0.379-0.909 0.379s-0.668-0.136-0.909-0.379c-0.242-0.24-0.379-0.568-0.379-0.909s0.136-0.668 0.379-0.909l10.624-10.611-10.624-10.611c-0.325-0.325-0.451-0.798-0.333-1.241s0.465-0.79 0.909-0.909c0.444-0.119 0.917 0.008 1.241 0.333l10.611 10.624 10.611-10.624c0.502-0.502 1.316-0.502 1.818 0s0.502 1.316 0 1.818l-10.624 10.611 10.624 10.611z"></path>
</symbol>
<symbol id="icon-close-purple" viewBox="0 0 32 32">
<path fill="#6a2ecb" style="fill: var(--color1, #6a2ecb)" d="M28.947 27.054c0.253 0.25 0.394 0.591 0.394 0.947s-0.142 0.696-0.394 0.947c-0.25 0.252-0.591 0.394-0.947 0.394s-0.696-0.142-0.947-0.394l-11.053-11.067-11.053 11.067c-0.25 0.252-0.591 0.394-0.947 0.394s-0.696-0.142-0.947-0.394c-0.252-0.25-0.394-0.591-0.394-0.947s0.142-0.696 0.394-0.947l11.067-11.053-11.067-11.053c-0.338-0.338-0.47-0.831-0.346-1.293s0.485-0.823 0.947-0.947c0.462-0.124 0.955 0.008 1.293 0.346l11.053 11.067 11.053-11.067c0.523-0.523 1.371-0.523 1.893 0s0.523 1.37 0 1.893l-11.067 11.053 11.067 11.053z"></path>
</symbol>
<symbol id="icon-delete" viewBox="0 0 32 32">
<path fill="#6a2ecb" style="fill: var(--color1, #6a2ecb)" d="M24.842 3.368h-17.684c-2.093 0-3.789 1.697-3.789 3.789v2.526c0 0.698 0.566 1.263 1.263 1.263h1.263v13.895c0 2.093 1.697 3.789 3.789 3.789h12.632c2.093 0 3.789-1.697 3.789-3.789v-13.895h1.263c0.698 0 1.263-0.566 1.263-1.263v-2.526c0-2.093-1.697-3.789-3.789-3.789zM23.579 24.842c0 0.698-0.566 1.263-1.263 1.263h-12.632c-0.698 0-1.263-0.566-1.263-1.263v-13.895h15.158v13.895zM5.895 8.421v-1.263c0-0.698 0.566-1.263 1.263-1.263h17.684c0.698 0 1.263 0.566 1.263 1.263v1.263h-20.211zM10.947 22.316c0 0.698 0.566 1.263 1.263 1.263s1.263-0.566 1.263-1.263v-7.579c0-0.698-0.566-1.263-1.263-1.263s-1.263 0.566-1.263 1.263v7.579zM18.526 14.737c0-0.698 0.566-1.263 1.263-1.263s1.263 0.566 1.263 1.263v7.579c0 0.698-0.566 1.263-1.263 1.263s-1.263-0.566-1.263-1.263v-7.579z"></path>
</symbol>
<symbol id="icon-dott" viewBox="0 0 32 32">
<path fill="#6a2ecb" style="fill: var(--color1, #6a2ecb); stroke: var(--color1, #6a2ecb)" stroke="#6a2ecb" stroke-linejoin="miter" stroke-linecap="butt" stroke-miterlimit="4" stroke-width="2.6667" d="M30.667 16c0 8.1-6.567 14.667-14.667 14.667s-14.667-6.566-14.667-14.667c0-8.1 6.566-14.667 14.667-14.667s14.667 6.566 14.667 14.667z"></path>
</symbol>
<symbol id="icon-empty-dott" viewBox="0 0 32 32">
<path fill="#ecdef6" style="fill: var(--color2, #ecdef6); stroke: var(--color1, #6a2ecb)" stroke="#6a2ecb" stroke-linejoin="miter" stroke-linecap="butt" stroke-miterlimit="4" stroke-width="2.6667" d="M30.667 16c0 8.1-6.567 14.667-14.667 14.667s-14.667-6.566-14.667-14.667c0-8.1 6.566-14.667 14.667-14.667s14.667 6.566 14.667 14.667z"></path>
</symbol>
<symbol id="icon-filters" viewBox="0 0 32 32">
<path fill="#6a2ecb" style="fill: var(--color1, #6a2ecb)" d="M13.467 23.6h13.933c0.7 0 1.267 0.567 1.267 1.267s-0.567 1.267-1.267 1.267h-13.933c0 1.399-1.134 2.533-2.533 2.533h-2.533c-1.399 0-2.533-1.134-2.533-2.533h-1.267c-0.7 0-1.267-0.567-1.267-1.267s0.567-1.267 1.267-1.267h1.267c0-1.399 1.134-2.533 2.533-2.533h2.533c1.399 0 2.533 1.134 2.533 2.533zM8.401 26.133h2.533v-2.533h-2.533v2.533zM4.601 17.267h11.4c0 1.399 1.134 2.533 2.533 2.533h2.533c1.399 0 2.533-1.134 2.533-2.533h3.8c0.7 0 1.267-0.567 1.267-1.267s-0.567-1.267-1.267-1.267h-3.8c0-1.399-1.134-2.533-2.533-2.533h-2.533c-1.399 0-2.533 1.134-2.533 2.533h-11.4c-0.7 0-1.267 0.567-1.267 1.267s0.567 1.267 1.267 1.267zM21.067 17.267v-2.533h-2.533v2.533h2.533zM4.601 8.4h3.8c0 1.399 1.134 2.533 2.533 2.533h2.533c1.399 0 2.533-1.134 2.533-2.533h11.4c0.7 0 1.267-0.567 1.267-1.267s-0.567-1.267-1.267-1.267h-11.4c0-1.399-1.134-2.533-2.533-2.533h-2.533c-1.399 0-2.533 1.134-2.533 2.533h-3.8c-0.7 0-1.267 0.567-1.267 1.267s0.567 1.267 1.267 1.267zM13.467 8.4v-2.533h-2.533v2.533h2.533z"></path>
</symbol>
<symbol id="icon-green-check" viewBox="0 0 32 32">
<path fill="none" stroke="#34c759" style="stroke: var(--color4, #34c759)" stroke-linejoin="miter" stroke-linecap="round" stroke-miterlimit="4" stroke-width="2.6301" d="M12.055 13.443l4.284 3.214c0.265 0.199 0.596 0.29 0.926 0.256s0.635-0.193 0.853-0.443l8.402-9.603"></path>
<path fill="none" stroke="#34c759" style="stroke: var(--color4, #34c759)" stroke-linejoin="miter" stroke-linecap="round" stroke-miterlimit="4" stroke-width="2.6301" d="M27.836 16.073c0 2.473-0.775 4.884-2.215 6.894s-3.474 3.519-5.816 4.314c-2.342 0.795-4.874 0.836-7.24 0.118s-4.449-2.159-5.954-4.121c-1.505-1.962-2.358-4.346-2.439-6.818s0.615-4.907 1.989-6.963c1.374-2.056 3.358-3.63 5.672-4.501s4.844-0.995 7.233-0.355"></path>
</symbol>
<symbol id="icon-heart" viewBox="0 0 32 32">
<path fill="#6a2ecb" style="fill: var(--color1, #6a2ecb)" d="M23.095 4.293c2.927 0.827 5.205 3.13 6 6.067 0.684 2.812-0.251 5.771-2.427 7.68l-9.693 9.573c-0.518 0.508-1.348 0.508-1.867 0l-9.773-9.573c-2.175-1.909-3.111-4.868-2.427-7.68 0.795-2.936 3.073-5.24 6-6.067 2.461-0.675 5.096-0.135 7.093 1.453 1.997-1.588 4.632-2.128 7.093-1.453zM16.001 24.8l8.84-8.667c1.45-1.272 2.054-3.256 1.56-5.12-0.566-2.005-2.13-3.574-4.133-4.147-1.97-0.519-4.065 0.097-5.44 1.6-0.518 0.508-1.348 0.508-1.867 0-1.042-1.107-2.481-1.754-4-1.8-0.451 0.007-0.9 0.074-1.333 0.2-2.003 0.573-3.567 2.142-4.133 4.147-0.469 1.885 0.178 3.872 1.667 5.12l8.84 8.667z"></path>
</symbol>
<symbol id="icon-home" viewBox="0 0 32 32">
<path fill="#6a2ecb" style="fill: var(--color1, #6a2ecb)" d="M26.667 10.32l2.213 2.013c0.552 0.486 0.605 1.327 0.12 1.88-0.486 0.552-1.327 0.605-1.88 0.12l-0.453-0.4v11.4c0 2.209-1.791 4-4 4h-4c-0.736 0-1.333-0.597-1.333-1.333v-6.667c0.006-0.347-0.135-0.681-0.387-0.92-0.247-0.259-0.588-0.408-0.947-0.413-0.736 0-1.333 0.597-1.333 1.333v6.667c0 0.736-0.597 1.333-1.333 1.333h-4c-2.209 0-4-1.791-4-4v-11.4l-0.453 0.4c-0.556 0.448-1.366 0.378-1.837-0.158s-0.437-1.348 0.077-1.842l2.213-2.013 1.133-0.987 8.653-7.667c0.503-0.442 1.257-0.442 1.76 0l8.653 7.667 1.133 0.987zM22.667 26.667c0.736 0 1.333-0.597 1.333-1.333v-13.773l-8-7.107-8 7.107v13.773c0 0.736 0.597 1.333 1.333 1.333h2.667v-5.333c0-2.209 1.791-4 4-4s4 1.791 4 4v5.333h2.667z"></path>
</symbol>
<symbol id="icon-long-arrow-right" viewBox="0 0 32 32">
<path fill="#6a2ecb" style="fill: var(--color1, #6a2ecb)" d="M19.633 12.701l1.776 1.86h-16.075v2.877h16.075l-1.776 1.86 1.942 2.034 5.092-5.333-5.092-5.333-1.942 2.034z"></path>
</symbol>
<symbol id="icon-order" viewBox="0 0 32 32">
<path fill="#ecdef6" style="fill: var(--color2, #ecdef6)" d="M28 16.281c0.006-0.093 0.006-0.187 0-0.28v-9.627c-0.044-2.086-1.767-3.744-3.853-3.707h-17.627c-2.086-0.037-3.81 1.62-3.853 3.707v16.587c0.044 2.086 1.767 3.744 3.853 3.707h8.147c0.075 0.006 0.151 0.006 0.227 0 2.868 3.619 8.127 4.228 11.747 1.36s4.228-8.127 1.36-11.747zM6.52 24.001c-0.609 0.024-1.13-0.433-1.187-1.040v-16.587c0.056-0.607 0.578-1.064 1.187-1.040h17.627c0.609-0.024 1.13 0.433 1.187 1.040v7.653c-2.581-1.412-5.716-1.359-8.248 0.141s-4.084 4.223-4.086 7.166c0.002 0.907 0.151 1.807 0.44 2.667h-6.92zM15.667 21.334c0 3.13 2.537 5.667 5.667 5.667 3.127-0.007 5.659-2.54 5.667-5.667 0-3.13-2.537-5.667-5.667-5.667s-5.667 2.537-5.667 5.667zM21.333 10.667h-12c-0.736 0-1.333-0.597-1.333-1.333s0.597-1.333 1.333-1.333h12c0.736 0 1.333 0.597 1.333 1.333s-0.597 1.333-1.333 1.333zM23.52 22.667c0.736 0 1.333-0.597 1.333-1.333s-0.597-1.333-1.333-1.333h-0.853v-0.853c0-0.736-0.597-1.333-1.333-1.333s-1.333 0.597-1.333 1.333v0.853h-0.853c-0.736 0-1.333 0.597-1.333 1.333s0.597 1.333 1.333 1.333h0.853v0.853c0 0.736 0.597 1.333 1.333 1.333s1.333-0.597 1.333-1.333v-0.853h0.853z"></path>
</symbol>
<symbol id="icon-pencil" viewBox="0 0 32 32">
<path fill="#2b1047" style="fill: var(--color3, #2b1047)" d="M12.453 25.199l15.64-15.64c1.070-0.997 1.511-2.499 1.149-3.916s-1.469-2.524-2.886-2.886-2.919 0.079-3.916 1.149l-15.68 15.68c-0.1 0.103-0.186 0.22-0.253 0.347l-3.707 7.48c-0.203 0.414-0.178 0.903 0.067 1.293s0.673 0.628 1.133 0.627c0.22-0.005 0.435-0.065 0.627-0.173l7.48-3.707c0.127-0.068 0.244-0.153 0.347-0.253zM28 29.333c0.736 0 1.333-0.597 1.333-1.333s-0.597-1.333-1.333-1.333h-12c-0.736 0-1.333 0.597-1.333 1.333s0.597 1.333 1.333 1.333h12zM21.76 12.119l-1.88-1.88-11.040 11.093-1.853 3.733 3.68-1.907 11.093-11.040zM25.287 5.331c0.365 0 0.715 0.15 0.967 0.415 0.26 0.257 0.403 0.61 0.395 0.975s-0.165 0.712-0.435 0.958l-2.573 2.56-1.88-1.88 2.56-2.613c0.252-0.265 0.601-0.415 0.967-0.415z"></path>
</symbol>
<symbol id="icon-person" viewBox="0 0 32 32">
<path fill="#ecdef6" style="fill: var(--color2, #ecdef6)" d="M22.666 9.333c0 1.768-0.702 3.464-1.953 4.714s-2.946 1.953-4.714 1.953h1.333c6.627 0 12 5.373 12 12 0 0.736-0.597 1.333-1.333 1.333h-24c-0.736 0-1.333-0.597-1.333-1.333 0-6.627 5.373-12 12-12h1.333c-3.682 0-6.667-2.985-6.667-6.667s2.985-6.667 6.667-6.667c3.682 0 6.667 2.985 6.667 6.667zM14.666 18.666c-4.64-0.001-8.577 3.407-9.24 8h21.147c-0.663-4.593-4.599-8.001-9.24-8h-2.667zM11.999 9.333c0 2.209 1.791 4 4 4 1.061 0 2.078-0.421 2.829-1.172s1.172-1.768 1.172-2.828c0-2.209-1.791-4-4-4s-4 1.791-4 4z"></path>
</symbol>
<symbol id="icon-plane" viewBox="0 0 32 32">
<path fill="#ecdef6" style="fill: var(--color2, #ecdef6)" d="M28.218 14.903l-23.273-11.636c-0.468-0.241-1.036-0.175-1.435 0.168-0.398 0.346-0.546 0.898-0.375 1.396l3.814 11.223-3.749 11.223c-0.13 0.384-0.073 0.808 0.156 1.143s0.602 0.544 1.007 0.563c0.202-0.001 0.402-0.050 0.582-0.142l23.273-11.636c0.432-0.221 0.703-0.666 0.703-1.151s-0.272-0.929-0.703-1.151zM6.574 25.105l2.586-7.758h12.929l-15.515 7.758zM6.574 7.004l2.586 7.758h12.994l-15.58-7.758z"></path>
</symbol>
<symbol id="icon-plus" viewBox="0 0 32 32">
<path fill="#6a2ecb" style="fill: var(--color1, #6a2ecb)" d="M29.334 16c0 0.736-0.597 1.333-1.333 1.333h-10.667v10.667c0 0.736-0.597 1.333-1.333 1.333s-1.333-0.597-1.333-1.333v-10.667h-10.667c-0.736 0-1.333-0.597-1.333-1.333s0.597-1.333 1.333-1.333h10.667v-10.667c0-0.736 0.597-1.333 1.333-1.333s1.333 0.597 1.333 1.333v10.667h10.667c0.736 0 1.333 0.597 1.333 1.333z"></path>
</symbol>
<symbol id="icon-search" viewBox="0 0 32 32">
<path fill="#ecdef6" style="fill: var(--color2, #ecdef6)" d="M21.747 19.867l7.2 7.187c0.252 0.25 0.394 0.591 0.394 0.947s-0.142 0.696-0.394 0.947c-0.25 0.252-0.591 0.394-0.947 0.394s-0.696-0.142-0.947-0.394l-7.187-7.2c-1.863 1.463-4.164 2.256-6.533 2.253-5.891 0-10.667-4.776-10.667-10.667s4.776-10.667 10.667-10.667c5.891 0 10.667 4.776 10.667 10.667 0.003 2.369-0.791 4.67-2.253 6.533zM13.334 5.334c-4.418 0-8 3.582-8 8s3.582 8 8 8 8-3.582 8-8c0-4.418-3.582-8-8-8z"></path>
</symbol>
<symbol id="icon-sort" viewBox="0 0 32 32">
<path fill="#6a2ecb" style="fill: var(--color1, #6a2ecb)" d="M2.666 4c0-0.736 0.597-1.333 1.333-1.333h16c0.736 0 1.333 0.597 1.333 1.333s-0.597 1.333-1.333 1.333h-16c-0.736 0-1.333-0.597-1.333-1.333zM17.333 10.667h-13.333c-0.736 0-1.333 0.597-1.333 1.333s0.597 1.333 1.333 1.333h13.333c0.736 0 1.333-0.597 1.333-1.333s-0.597-1.333-1.333-1.333zM3.999 18.667h10.667c0.736 0 1.333 0.597 1.333 1.333s-0.597 1.333-1.333 1.333h-10.667c-0.736 0-1.333-0.597-1.333-1.333s0.597-1.333 1.333-1.333zM11.999 26.667h-8c-0.736 0-1.333 0.597-1.333 1.333s0.597 1.333 1.333 1.333h8c0.736 0 1.333-0.597 1.333-1.333s-0.597-1.333-1.333-1.333zM27.999 22.659c0.356 0 0.696 0.142 0.947 0.394 0.252 0.25 0.394 0.591 0.394 0.947s-0.142 0.696-0.394 0.947l-4 4c-0.25 0.252-0.591 0.394-0.947 0.394s-0.696-0.142-0.947-0.394l-4-4c-0.338-0.338-0.47-0.831-0.347-1.293s0.485-0.823 0.947-0.947c0.462-0.124 0.955 0.008 1.293 0.347l1.72 1.733v-20.787c0-0.736 0.597-1.333 1.333-1.333s1.333 0.597 1.333 1.333v20.787l1.72-1.733c0.25-0.252 0.591-0.394 0.947-0.394z"></path>
</symbol>
</defs>
</svg>
