<svg width="167" height="68" viewBox="0 0 167 68" fill="none" xmlns="http://www.w3.org/2000/svg">
<path d="M23.7501 29.8224L39.047 29.4486M23.7501 29.8224L30.9155 41.8598M23.7501 29.8224L30.9155 21M23.7501 29.8224L19 26.2336M23.7501 29.8224L19 38.4953M39.047 29.4486L30.9155 41.8598M39.047 29.4486L30.9155 21M39.047 29.4486L40.8182 26.757M39.047 29.4486L40.8182 39.4673M30.9155 41.8598L19 38.4953M30.9155 41.8598L28.9832 45M30.9155 41.8598L40.8182 39.4673M30.9155 21L40.8182 26.757M30.9155 21L19 26.2336M40.8182 26.757V39.4673M19 26.2336V38.4953M19 38.4953L28.9832 45M28.9832 45L40.8182 39.4673" stroke="#ECDEF6" stroke-linecap="round" stroke-linejoin="round"/>
<path d="M51.4126 13.4208C43.9617 15.1479 41.347 10.7501 39.1627 9.79316C36.9784 8.8362 33.9053 9.63543 33.9053 9.63543C33.9053 9.63543 30.6963 11.9827 28.5424 13.894C26.4523 15.0197 25.2451 15.3694 22.917 14.5774C22.917 14.5774 32.4855 6.48096 32.9587 6.06037C33.4319 5.63977 41.4758 4.37798 41.4758 4.37798M23.653 14.998C23.653 14.998 21.3397 16.5753 20.2883 17.101C19.2368 17.6268 17.3942 17.5498 15.7668 16.6279C15.7668 16.6279 29.0682 5.37692 29.5414 5.11404M32.433 11.1075C35.1292 12.4207 36.9902 12.0615 40.4769 10.8972M25.1776 5.58717C25.1776 5.58717 19.392 7.46833 18.343 7.53243C17.294 7.59653 16.484 7.23749 15.4685 5.90915C15.4685 5.90915 28.1744 1.59152 29.1207 1.5915C30.067 1.59147 35.0617 2.06468 35.0617 2.06468M19.3945 13.4208C17.1338 14.4723 15.482 13.9025 14 12.8939C14 12.8939 27.8521 3.78647 28.3321 3.58935C28.3321 3.58935 37.5852 1.38118 40.7397 1.01319C43.8942 0.645194 53.7256 8.11075 61.6118 6.79639M28.8579 13.894C32.2661 15.3517 34.6411 16.6804 37.5853 17.6268C40.5294 18.5731 52.2289 17.4435 61.6118 17.2587" stroke="#ECDEF6" stroke-linecap="round" stroke-linejoin="round"/>
<path d="M11.1992 52.5792C18.6501 50.8521 21.2648 55.2499 23.4491 56.2068C25.6334 57.1638 28.7066 56.3646 28.7066 56.3646C28.7066 56.3646 31.9155 54.0173 34.0694 52.106C36.1595 50.9803 37.3667 50.6306 39.6948 51.4226C39.6948 51.4226 30.1263 59.519 29.6531 59.9396C29.1799 60.3602 21.136 61.622 21.136 61.622M38.9588 51.002C38.9588 51.002 41.2721 49.4247 42.3236 48.899C43.3751 48.3732 45.2176 48.4502 46.845 49.3721C46.845 49.3721 33.5436 60.6231 33.0704 60.886M30.1788 54.8925C27.4827 53.5793 25.6216 53.9385 22.1349 55.1028M37.4342 60.4128C37.4342 60.4128 43.2199 58.5317 44.2689 58.4676C45.3179 58.4035 46.1278 58.7625 47.1434 60.0908C47.1434 60.0908 34.4374 64.4085 33.4911 64.4085C32.5448 64.4085 27.5502 63.9353 27.5502 63.9353M43.2174 52.5792C45.4781 51.5277 47.1298 52.0975 48.6118 53.1061C48.6118 53.1061 34.7597 62.2135 34.2797 62.4106C34.2797 62.4106 25.0266 64.6188 21.8721 64.9868C18.7176 65.3548 8.88617 57.8892 0.999993 59.2036M33.7539 52.106C30.3457 50.6483 27.9707 49.3196 25.0265 48.3732C22.0824 47.4269 10.3829 48.5565 0.999977 48.7413" stroke="#ECDEF6" stroke-linecap="round" stroke-linejoin="round"/>
<path d="M84.5718 17.9512H77.1714V12.9941C77.1714 11.5527 77.0894 10.6562 76.9253 10.3047C76.7729 9.94141 76.4272 9.75977 75.8882 9.75977C75.2788 9.75977 74.8921 9.97656 74.728 10.4102C74.564 10.8438 74.4819 11.7812 74.4819 13.2227V26.4414C74.4819 27.8242 74.564 28.7266 74.728 29.1484C74.8921 29.5703 75.2612 29.7812 75.8354 29.7812C76.3862 29.7812 76.7437 29.5703 76.9077 29.1484C77.0835 28.7266 77.1714 27.7363 77.1714 26.1777V22.6094H84.5718V23.7168C84.5718 26.6582 84.3608 28.7441 83.939 29.9746C83.5288 31.2051 82.6089 32.2832 81.1792 33.209C79.7612 34.1348 78.0093 34.5977 75.9233 34.5977C73.7554 34.5977 71.9683 34.2051 70.562 33.4199C69.1558 32.6348 68.2241 31.5508 67.7671 30.168C67.3101 28.7734 67.0815 26.6816 67.0815 23.8926V15.5781C67.0815 13.5273 67.1519 11.9922 67.2925 10.9727C67.4331 9.94141 67.8491 8.95117 68.5405 8.00195C69.2437 7.05273 70.2104 6.30859 71.4409 5.76953C72.6831 5.21875 74.1069 4.94336 75.7124 4.94336C77.8921 4.94336 79.6909 5.36523 81.1089 6.20898C82.5269 7.05273 83.4585 8.10742 83.9038 9.37305C84.3491 10.627 84.5718 12.584 84.5718 15.2441V17.9512ZM100.005 5.54102L104.242 34H96.6655L96.2964 28.8848H93.6421L93.2026 34H85.5386L89.3003 5.54102H100.005ZM96.0854 23.8398C95.7104 20.6172 95.3354 16.6387 94.9604 11.9043C94.2104 17.3418 93.7417 21.3203 93.5542 23.8398H96.0854ZM105.507 5.54102H110.746C114.238 5.54102 116.599 5.67578 117.83 5.94531C119.072 6.21484 120.08 6.90625 120.853 8.01953C121.638 9.12109 122.031 10.8848 122.031 13.3105C122.031 15.5254 121.755 17.0137 121.205 17.7754C120.654 18.5371 119.57 18.9941 117.953 19.1465C119.417 19.5098 120.402 19.9961 120.906 20.6055C121.41 21.2148 121.72 21.7773 121.837 22.293C121.966 22.7969 122.031 24.1973 122.031 26.4941V34H115.158V24.543C115.158 23.0195 115.035 22.0762 114.789 21.7129C114.554 21.3496 113.927 21.168 112.908 21.168V34H105.507V5.54102ZM112.908 10.4102V16.7383C113.74 16.7383 114.32 16.627 114.648 16.4043C114.988 16.1699 115.158 15.4258 115.158 14.1719V12.6074C115.158 11.7051 114.994 11.1133 114.666 10.832C114.349 10.5508 113.763 10.4102 112.908 10.4102ZM124.914 5.54102H130.451C134.025 5.54102 136.439 5.70508 137.693 6.0332C138.958 6.36133 139.919 6.90039 140.576 7.65039C141.232 8.40039 141.642 9.23828 141.806 10.1641C141.97 11.0781 142.052 12.8828 142.052 15.5781V25.5449C142.052 28.0996 141.929 29.8105 141.683 30.6777C141.449 31.5332 141.033 32.207 140.435 32.6992C139.837 33.1797 139.099 33.5195 138.22 33.7188C137.341 33.9062 136.017 34 134.248 34H124.914V5.54102ZM132.314 10.4102V29.1309C133.38 29.1309 134.037 28.9199 134.283 28.498C134.529 28.0645 134.652 26.8984 134.652 25V13.9434C134.652 12.6543 134.611 11.8281 134.529 11.4648C134.447 11.1016 134.259 10.8379 133.966 10.6738C133.673 10.498 133.123 10.4102 132.314 10.4102ZM165.835 21.9883V27.3203L163.609 28.7266L166.382 34H159.097L158.14 32.2422C155.692 33.8568 153.375 34.6641 151.187 34.6641C148.895 34.6641 147.131 33.9023 145.894 32.3789C144.657 30.8555 144.039 29.0195 144.039 26.8711C144.039 25.1523 144.403 23.8047 145.132 22.8281C145.861 21.8516 146.955 21.0573 148.414 20.4453C146.33 18.9479 145.289 16.9232 145.289 14.3711C145.289 12.1706 146.031 10.3997 147.515 9.05859C149 7.71745 151.044 7.04688 153.648 7.04688C155.992 7.04688 157.834 7.70443 159.175 9.01953C160.529 10.3346 161.207 12.0078 161.207 14.0391C161.207 16.1745 160.386 18.069 158.746 19.7227L161.539 24.7617L165.835 21.9883ZM153.667 16.4414C154.553 15.2826 154.996 14.1758 154.996 13.1211C154.996 12.6654 154.865 12.2487 154.605 11.8711C154.345 11.4935 153.98 11.3047 153.511 11.3047C153.082 11.3047 152.756 11.4479 152.535 11.7344C152.313 12.0208 152.203 12.457 152.203 13.043C152.203 14.2669 152.691 15.3997 153.667 16.4414ZM155.445 28.668L152.886 24.4102C151.91 25.2956 151.421 26.2526 151.421 27.2812C151.421 28.0234 151.571 28.5833 151.871 28.9609C152.183 29.3255 152.639 29.5078 153.238 29.5078C153.876 29.5078 154.611 29.2279 155.445 28.668ZM67.2925 36.541H74.6753C77.0073 36.541 78.771 36.7227 79.9663 37.0859C81.1733 37.4492 82.146 38.1875 82.8843 39.3008C83.6226 40.4023 83.9917 42.1836 83.9917 44.6445C83.9917 46.3086 83.728 47.4688 83.2007 48.125C82.6851 48.7812 81.6597 49.2852 80.1245 49.6367C81.8354 50.0234 82.9956 50.668 83.605 51.5703C84.2144 52.4609 84.519 53.832 84.519 55.6836V58.3203C84.519 60.2422 84.2964 61.666 83.8511 62.5918C83.4175 63.5176 82.7202 64.1504 81.7593 64.4902C80.7983 64.8301 78.8296 65 75.853 65H67.2925V36.541ZM74.6929 41.4102V47.7383C75.0093 47.7266 75.2554 47.7207 75.4312 47.7207C76.1577 47.7207 76.6206 47.5449 76.8198 47.1934C77.019 46.8301 77.1187 45.8047 77.1187 44.1172C77.1187 43.2266 77.0366 42.6055 76.8726 42.2539C76.7085 41.8906 76.4917 41.6621 76.2222 41.5684C75.9644 41.4746 75.4546 41.4219 74.6929 41.4102ZM74.6929 52.168V60.1309C75.7358 60.0957 76.3979 59.9316 76.6792 59.6387C76.9722 59.3457 77.1187 58.625 77.1187 57.4766V54.8223C77.1187 53.6035 76.9897 52.8652 76.7319 52.6074C76.4741 52.3496 75.7944 52.2031 74.6929 52.168ZM104.101 53.2051C104.101 56.0645 104.031 58.0918 103.89 59.2871C103.761 60.4707 103.339 61.5547 102.625 62.5391C101.921 63.5234 100.966 64.2793 99.7593 64.8066C98.5522 65.334 97.146 65.5977 95.5405 65.5977C94.0171 65.5977 92.646 65.3516 91.4272 64.8594C90.2202 64.3555 89.2476 63.6055 88.5093 62.6094C87.771 61.6133 87.3315 60.5293 87.1909 59.3574C87.0503 58.1855 86.98 56.1348 86.98 53.2051V48.3359C86.98 45.4766 87.0444 43.4551 87.1733 42.2715C87.314 41.0762 87.7358 39.9863 88.439 39.002C89.1538 38.0176 90.1147 37.2617 91.3218 36.7344C92.5288 36.207 93.9351 35.9434 95.5405 35.9434C97.064 35.9434 98.4292 36.1953 99.6362 36.6992C100.855 37.1914 101.833 37.9355 102.572 38.9316C103.31 39.9277 103.75 41.0117 103.89 42.1836C104.031 43.3555 104.101 45.4062 104.101 48.3359V53.2051ZM96.7007 43.8535C96.7007 42.5293 96.6245 41.6855 96.4722 41.3223C96.3315 40.9473 96.0327 40.7598 95.5757 40.7598C95.189 40.7598 94.8901 40.9121 94.6792 41.2168C94.48 41.5098 94.3804 42.3887 94.3804 43.8535V57.1426C94.3804 58.7949 94.4448 59.8145 94.5737 60.2012C94.7144 60.5879 95.0308 60.7812 95.5229 60.7812C96.0269 60.7812 96.3491 60.5586 96.4897 60.1133C96.6304 59.668 96.7007 58.6074 96.7007 56.9316V43.8535ZM119.658 36.541L123.894 65H116.318L115.949 59.8848H113.294L112.855 65H105.191L108.953 36.541H119.658ZM115.738 54.8398C115.363 51.6172 114.988 47.6387 114.613 42.9043C113.863 48.3418 113.394 52.3203 113.207 54.8398H115.738ZM125.16 36.541H130.398C133.89 36.541 136.251 36.6758 137.482 36.9453C138.724 37.2148 139.732 37.9062 140.505 39.0195C141.291 40.1211 141.683 41.8848 141.683 44.3105C141.683 46.5254 141.408 48.0137 140.857 48.7754C140.306 49.5371 139.222 49.9941 137.605 50.1465C139.07 50.5098 140.054 50.9961 140.558 51.6055C141.062 52.2148 141.373 52.7773 141.49 53.293C141.619 53.7969 141.683 55.1973 141.683 57.4941V65H134.81V55.543C134.81 54.0195 134.687 53.0762 134.441 52.7129C134.207 52.3496 133.58 52.168 132.56 52.168V65H125.16V36.541ZM132.56 41.4102V47.7383C133.392 47.7383 133.972 47.627 134.3 47.4043C134.64 47.1699 134.81 46.4258 134.81 45.1719V43.6074C134.81 42.7051 134.646 42.1133 134.318 41.832C134.001 41.5508 133.416 41.4102 132.56 41.4102ZM144.566 36.541H150.103C153.677 36.541 156.091 36.7051 157.345 37.0332C158.611 37.3613 159.572 37.9004 160.228 38.6504C160.884 39.4004 161.294 40.2383 161.458 41.1641C161.623 42.0781 161.705 43.8828 161.705 46.5781V56.5449C161.705 59.0996 161.582 60.8105 161.335 61.6777C161.101 62.5332 160.685 63.207 160.087 63.6992C159.49 64.1797 158.751 64.5195 157.873 64.7188C156.994 64.9062 155.669 65 153.9 65H144.566V36.541ZM151.966 41.4102V60.1309C153.033 60.1309 153.689 59.9199 153.935 59.498C154.181 59.0645 154.304 57.8984 154.304 56V44.9434C154.304 43.6543 154.263 42.8281 154.181 42.4648C154.099 42.1016 153.912 41.8379 153.619 41.6738C153.326 41.498 152.775 41.4102 151.966 41.4102Z" fill="#ECDEF6"/>
</svg>
