<svg width="96" height="38" viewBox="0 0 96 38" fill="none" xmlns="http://www.w3.org/2000/svg">
<path d="M50.4199 10.084H46.3086V7.33008C46.3086 6.5293 46.263 6.03125 46.1719 5.83594C46.0872 5.63411 45.8952 5.5332 45.5957 5.5332C45.2572 5.5332 45.0423 5.65365 44.9512 5.89453C44.86 6.13542 44.8145 6.65625 44.8145 7.45703V14.8008C44.8145 15.569 44.86 16.0703 44.9512 16.3047C45.0423 16.5391 45.2474 16.6562 45.5664 16.6562C45.8724 16.6562 46.071 16.5391 46.1621 16.3047C46.2598 16.0703 46.3086 15.5202 46.3086 14.6543V12.6719H50.4199V13.2871C50.4199 14.9212 50.3027 16.0801 50.0684 16.7637C49.8405 17.4473 49.3294 18.0462 48.5352 18.5605C47.7474 19.0749 46.7741 19.332 45.6152 19.332C44.4108 19.332 43.418 19.1139 42.6367 18.6777C41.8555 18.2415 41.3379 17.6393 41.084 16.8711C40.8301 16.0964 40.7031 14.9342 40.7031 13.3848V8.76562C40.7031 7.6263 40.7422 6.77344 40.8203 6.20703C40.8984 5.63411 41.1296 5.08398 41.5137 4.55664C41.9043 4.0293 42.4414 3.61589 43.125 3.31641C43.8151 3.01042 44.6061 2.85742 45.498 2.85742C46.709 2.85742 47.7083 3.0918 48.4961 3.56055C49.2839 4.0293 49.8014 4.61523 50.0488 5.31836C50.2962 6.01497 50.4199 7.10221 50.4199 8.58008V10.084ZM58.9941 3.18945L61.3477 19H57.1387L56.9336 16.1582H55.459L55.2148 19H50.957L53.0469 3.18945H58.9941ZM56.8164 13.3555C56.6081 11.5651 56.3997 9.35482 56.1914 6.72461C55.7747 9.74544 55.5143 11.9557 55.4102 13.3555H56.8164ZM62.0508 3.18945H64.9609C66.901 3.18945 68.2129 3.26432 68.8965 3.41406C69.5866 3.5638 70.1465 3.94792 70.5762 4.56641C71.0124 5.17839 71.2305 6.1582 71.2305 7.50586C71.2305 8.73633 71.0775 9.56315 70.7715 9.98633C70.4655 10.4095 69.8633 10.6634 68.9648 10.748C69.7786 10.9499 70.3255 11.2201 70.6055 11.5586C70.8854 11.8971 71.0579 12.2096 71.123 12.4961C71.1947 12.776 71.2305 13.554 71.2305 14.8301V19H67.4121V13.7461C67.4121 12.8997 67.3438 12.3757 67.207 12.1738C67.0768 11.972 66.7285 11.8711 66.1621 11.8711V19H62.0508V3.18945ZM66.1621 5.89453V9.41016C66.6243 9.41016 66.9466 9.34831 67.1289 9.22461C67.3177 9.0944 67.4121 8.68099 67.4121 7.98438V7.11523C67.4121 6.61393 67.321 6.28516 67.1387 6.12891C66.9629 5.97266 66.6374 5.89453 66.1621 5.89453ZM72.832 3.18945H75.9082C77.8939 3.18945 79.235 3.2806 79.9316 3.46289C80.6348 3.64518 81.1686 3.94466 81.5332 4.36133C81.8978 4.77799 82.1257 5.24349 82.2168 5.75781C82.3079 6.26562 82.3535 7.26823 82.3535 8.76562V14.3027C82.3535 15.722 82.2852 16.6725 82.1484 17.1543C82.0182 17.6296 81.7871 18.0039 81.4551 18.2773C81.123 18.5443 80.7129 18.7331 80.2246 18.8438C79.7363 18.9479 79.0007 19 78.0176 19H72.832V3.18945ZM76.9434 5.89453V16.2949C77.5358 16.2949 77.9004 16.1777 78.0371 15.9434C78.1738 15.7025 78.2422 15.0547 78.2422 14V7.85742C78.2422 7.14128 78.2194 6.68229 78.1738 6.48047C78.1283 6.27865 78.0241 6.13216 77.8613 6.04102C77.6986 5.94336 77.3926 5.89453 76.9434 5.89453ZM95.4414 12.3936V15.3262L94.2168 16.0996L95.7422 19H91.7354L91.209 18.0332C89.8626 18.9212 88.5879 19.3652 87.3848 19.3652C86.1243 19.3652 85.154 18.9463 84.4736 18.1084C83.7933 17.2705 83.4531 16.2607 83.4531 15.0791C83.4531 14.1338 83.6536 13.3926 84.0547 12.8555C84.4557 12.3184 85.0573 11.8815 85.8594 11.5449C84.7135 10.7214 84.1406 9.60775 84.1406 8.2041C84.1406 6.99382 84.5488 6.01986 85.3652 5.28223C86.1816 4.5446 87.306 4.17578 88.7383 4.17578C90.0273 4.17578 91.0407 4.53743 91.7783 5.26074C92.5231 5.98405 92.8955 6.9043 92.8955 8.02148C92.8955 9.19596 92.4443 10.238 91.542 11.1475L93.0781 13.9189L95.4414 12.3936ZM88.749 9.34277C89.236 8.7054 89.4795 8.09668 89.4795 7.5166C89.4795 7.26595 89.4079 7.03678 89.2646 6.8291C89.1214 6.62142 88.9209 6.51758 88.6631 6.51758C88.4268 6.51758 88.2477 6.59635 88.126 6.75391C88.0042 6.91146 87.9434 7.15137 87.9434 7.47363C87.9434 8.14681 88.2119 8.76986 88.749 9.34277ZM89.7266 16.0674L88.3193 13.7256C87.7822 14.2126 87.5137 14.7389 87.5137 15.3047C87.5137 15.7129 87.596 16.0208 87.7607 16.2285C87.9326 16.429 88.1833 16.5293 88.5127 16.5293C88.8636 16.5293 89.2682 16.3753 89.7266 16.0674ZM40.8203 20.1895H44.9219C46.2174 20.1895 47.1973 20.2904 47.8613 20.4922C48.5319 20.694 49.0723 21.1042 49.4824 21.7227C49.8926 22.3346 50.0977 23.3242 50.0977 24.6914C50.0977 25.6159 49.9512 26.2604 49.6582 26.625C49.3717 26.9896 48.8021 27.2695 47.9492 27.4648C48.8997 27.6797 49.5443 28.0378 49.8828 28.5391C50.2214 29.0339 50.3906 29.7956 50.3906 30.8242V32.2891C50.3906 33.3568 50.2669 34.1478 50.0195 34.6621C49.7786 35.1764 49.3913 35.528 48.8574 35.7168C48.3236 35.9056 47.2298 36 45.5762 36H40.8203V20.1895ZM44.9316 22.8945V26.4102C45.1074 26.4036 45.2441 26.4004 45.3418 26.4004C45.7454 26.4004 46.0026 26.3027 46.1133 26.1074C46.224 25.9056 46.2793 25.3359 46.2793 24.3984C46.2793 23.9036 46.2337 23.5586 46.1426 23.3633C46.0514 23.1615 45.931 23.0345 45.7812 22.9824C45.638 22.9303 45.3548 22.901 44.9316 22.8945ZM44.9316 28.8711V33.2949C45.5111 33.2754 45.8789 33.1842 46.0352 33.0215C46.1979 32.8587 46.2793 32.4583 46.2793 31.8203V30.3457C46.2793 29.6686 46.2077 29.2585 46.0645 29.1152C45.9212 28.972 45.5436 28.8906 44.9316 28.8711ZM61.2695 29.4473C61.2695 31.0358 61.2305 32.1621 61.1523 32.8262C61.0807 33.4837 60.8464 34.0859 60.4492 34.6328C60.0586 35.1797 59.528 35.5996 58.8574 35.8926C58.1868 36.1855 57.4056 36.332 56.5137 36.332C55.6673 36.332 54.9056 36.1953 54.2285 35.9219C53.5579 35.6419 53.0176 35.2253 52.6074 34.6719C52.1973 34.1185 51.9531 33.5163 51.875 32.8652C51.7969 32.2142 51.7578 31.0749 51.7578 29.4473V26.7422C51.7578 25.1536 51.7936 24.0306 51.8652 23.373C51.9434 22.709 52.1777 22.1035 52.5684 21.5566C52.9655 21.0098 53.4993 20.5898 54.1699 20.2969C54.8405 20.0039 55.6217 19.8574 56.5137 19.8574C57.36 19.8574 58.1185 19.9974 58.7891 20.2773C59.4661 20.5508 60.0098 20.9642 60.4199 21.5176C60.8301 22.071 61.0742 22.6732 61.1523 23.3242C61.2305 23.9753 61.2695 25.1146 61.2695 26.7422V29.4473ZM57.1582 24.252C57.1582 23.5163 57.1159 23.0475 57.0312 22.8457C56.9531 22.6374 56.7871 22.5332 56.5332 22.5332C56.3184 22.5332 56.1523 22.6178 56.0352 22.7871C55.9245 22.9499 55.8691 23.4382 55.8691 24.252V31.6348C55.8691 32.5527 55.9049 33.1191 55.9766 33.334C56.0547 33.5488 56.2305 33.6562 56.5039 33.6562C56.7839 33.6562 56.9629 33.5326 57.041 33.2852C57.1191 33.0378 57.1582 32.4486 57.1582 31.5176V24.252ZM69.9121 20.1895L72.2656 36H68.0566L67.8516 33.1582H66.377L66.1328 36H61.875L63.9648 20.1895H69.9121ZM67.7344 30.3555C67.526 28.5651 67.3177 26.3548 67.1094 23.7246C66.6927 26.7454 66.4323 28.9557 66.3281 30.3555H67.7344ZM72.9688 20.1895H75.8789C77.819 20.1895 79.1309 20.2643 79.8145 20.4141C80.5046 20.5638 81.0645 20.9479 81.4941 21.5664C81.9303 22.1784 82.1484 23.1582 82.1484 24.5059C82.1484 25.7363 81.9954 26.5632 81.6895 26.9863C81.3835 27.4095 80.7812 27.6634 79.8828 27.748C80.6966 27.9499 81.2435 28.2201 81.5234 28.5586C81.8034 28.8971 81.9759 29.2096 82.041 29.4961C82.1126 29.776 82.1484 30.554 82.1484 31.8301V36H78.3301V30.7461C78.3301 29.8997 78.2617 29.3757 78.125 29.1738C77.9948 28.972 77.6465 28.8711 77.0801 28.8711V36H72.9688V20.1895ZM77.0801 22.8945V26.4102C77.5423 26.4102 77.8646 26.3483 78.0469 26.2246C78.2357 26.0944 78.3301 25.681 78.3301 24.9844V24.1152C78.3301 23.6139 78.2389 23.2852 78.0566 23.1289C77.8809 22.9727 77.5553 22.8945 77.0801 22.8945ZM83.75 20.1895H86.8262C88.8118 20.1895 90.153 20.2806 90.8496 20.4629C91.5527 20.6452 92.0866 20.9447 92.4512 21.3613C92.8158 21.778 93.0436 22.2435 93.1348 22.7578C93.2259 23.2656 93.2715 24.2682 93.2715 25.7656V31.3027C93.2715 32.722 93.2031 33.6725 93.0664 34.1543C92.9362 34.6296 92.7051 35.0039 92.373 35.2773C92.041 35.5443 91.6309 35.7331 91.1426 35.8438C90.6543 35.9479 89.9186 36 88.9355 36H83.75V20.1895ZM87.8613 22.8945V33.2949C88.4538 33.2949 88.8184 33.1777 88.9551 32.9434C89.0918 32.7025 89.1602 32.0547 89.1602 31V24.8574C89.1602 24.1413 89.1374 23.6823 89.0918 23.4805C89.0462 23.2786 88.9421 23.1322 88.7793 23.041C88.6165 22.9434 88.3105 22.8945 87.8613 22.8945Z" fill="#ECDEF6"/>
<path d="M13.3948 17.4112L21.107 17.2243M13.3948 17.4112L17.0074 23.4299M13.3948 17.4112L17.0074 13M13.3948 17.4112L11 15.6168M13.3948 17.4112L11 21.7477M21.107 17.2243L17.0074 23.4299M21.107 17.2243L17.0074 13M21.107 17.2243L22 15.8785M21.107 17.2243L22 22.2336M17.0074 23.4299L11 21.7477M17.0074 23.4299L16.0332 25M17.0074 23.4299L22 22.2336M17.0074 13L22 15.8785M17.0074 13L11 15.6168M22 15.8785V22.2336M11 15.6168V21.7477M11 21.7477L16.0332 25M16.0332 25L22 22.2336" stroke="#ECDEF6" stroke-width="0.75" stroke-linecap="round" stroke-linejoin="round"/>
<path d="M30.0019 8.30635C25.6202 9.3223 24.0825 6.73536 22.7979 6.17245C21.5134 5.60953 19.7061 6.07967 19.7061 6.07967C19.7061 6.07967 17.8189 7.46039 16.5522 8.58469C15.3231 9.24688 14.6131 9.45261 13.244 8.98673C13.244 8.98673 18.8711 4.2241 19.1494 3.97669C19.4277 3.72928 24.1582 2.98705 24.1582 2.98705M13.6768 9.23414C13.6768 9.23414 12.3164 10.1619 11.6981 10.4712C11.0797 10.7805 9.99611 10.7352 9.03906 10.1929C9.03906 10.1929 16.8614 3.57466 17.1397 3.42003M18.8402 6.9456C20.4258 7.71808 21.5203 7.50677 23.5708 6.8219M14.5735 3.69834C14.5735 3.69834 11.171 4.8049 10.554 4.84261C9.93714 4.88031 9.46083 4.66911 8.86358 3.88774C8.86358 3.88774 16.3358 1.34795 16.8923 1.34794C17.4489 1.34792 20.3861 1.62628 20.3861 1.62628M11.1724 8.30634C9.84293 8.92487 8.87153 8.58972 8 7.99642C8 7.99642 16.1463 2.6391 16.4286 2.52315C16.4286 2.52315 21.8702 1.22423 23.7253 1.00776C25.5805 0.791291 31.3622 5.1828 36 4.40964M16.7378 8.58469C18.7421 9.44218 20.1388 10.2238 21.8702 10.7804C23.6017 11.3371 30.482 10.6727 36 10.564" stroke="#ECDEF6" stroke-width="0.75" stroke-linecap="round" stroke-linejoin="round"/>
<path d="M6.99807 29.6936C11.3798 28.6777 12.9175 31.2646 14.2021 31.8276C15.4866 32.3905 17.2939 31.9203 17.2939 31.9203C17.2939 31.9203 19.1811 30.5396 20.4478 29.4153C21.6769 28.7531 22.3869 28.5474 23.756 29.0133C23.756 29.0133 18.1289 33.7759 17.8506 34.0233C17.5723 34.2707 12.8418 35.013 12.8418 35.013M23.3232 28.7659C23.3232 28.7659 24.6836 27.8381 25.3019 27.5288C25.9203 27.2195 27.0039 27.2648 27.9609 27.8071C27.9609 27.8071 20.1386 34.4253 19.8603 34.58M18.1598 31.0544C16.5742 30.2819 15.4797 30.4932 13.4292 31.1781M22.4265 34.3017C22.4265 34.3017 25.829 33.1951 26.446 33.1574C27.0629 33.1197 27.5392 33.3309 28.1364 34.1123C28.1364 34.1123 20.6642 36.652 20.1077 36.6521C19.5511 36.6521 16.6139 36.3737 16.6139 36.3737M25.8276 29.6937C27.1571 29.0751 28.1285 29.4103 29 30.0036C29 30.0036 20.8537 35.3609 20.5714 35.4769C20.5714 35.4769 15.1298 36.7758 13.2747 36.9922C11.4195 37.2087 5.63779 32.8172 1.00001 33.5904M20.2622 29.4153C18.2579 28.5578 16.8612 27.7762 15.1298 27.2196C13.3983 26.6629 6.51802 27.3273 1 27.436" stroke="#ECDEF6" stroke-width="0.75" stroke-linecap="round" stroke-linejoin="round"/>
</svg>
