<svg width="71" height="26" viewBox="0 0 71 26" fill="none" xmlns="http://www.w3.org/2000/svg">
<path d="M38.2939 6.75879H35.416V4.83105C35.416 4.27051 35.3841 3.92188 35.3203 3.78516C35.2611 3.64388 35.1266 3.57324 34.917 3.57324C34.68 3.57324 34.5296 3.65755 34.4658 3.82617C34.402 3.99479 34.3701 4.35938 34.3701 4.91992V10.0605C34.3701 10.5983 34.402 10.9492 34.4658 11.1133C34.5296 11.2773 34.6732 11.3594 34.8965 11.3594C35.1107 11.3594 35.2497 11.2773 35.3135 11.1133C35.3818 10.9492 35.416 10.5641 35.416 9.95801V8.57031H38.2939V9.00098C38.2939 10.1449 38.2119 10.9561 38.0479 11.4346C37.8883 11.9131 37.5306 12.3324 36.9746 12.6924C36.4232 13.0524 35.7419 13.2324 34.9307 13.2324C34.0876 13.2324 33.3926 13.0798 32.8457 12.7744C32.2988 12.4691 31.9365 12.0475 31.7588 11.5098C31.5811 10.9674 31.4922 10.154 31.4922 9.06934V5.83594C31.4922 5.03841 31.5195 4.44141 31.5742 4.04492C31.6289 3.64388 31.7907 3.25879 32.0596 2.88965C32.333 2.52051 32.709 2.23112 33.1875 2.02148C33.6706 1.80729 34.2243 1.7002 34.8486 1.7002C35.6963 1.7002 36.3958 1.86426 36.9473 2.19238C37.4987 2.52051 37.861 2.93066 38.0342 3.42285C38.2074 3.91048 38.2939 4.67155 38.2939 5.70605V6.75879ZM44.2959 1.93262L45.9434 13H42.9971L42.8535 11.0107H41.8213L41.6504 13H38.6699L40.1328 1.93262H44.2959ZM42.7715 9.04883C42.6257 7.79557 42.4798 6.24837 42.334 4.40723C42.0423 6.52181 41.86 8.06901 41.7871 9.04883H42.7715ZM46.4355 1.93262H48.4727C49.8307 1.93262 50.749 1.98503 51.2275 2.08984C51.7106 2.19466 52.1025 2.46354 52.4033 2.89648C52.7087 3.32487 52.8613 4.01074 52.8613 4.9541C52.8613 5.81543 52.7542 6.39421 52.54 6.69043C52.3258 6.98665 51.9043 7.16439 51.2754 7.22363C51.8451 7.36491 52.2279 7.55404 52.4238 7.79102C52.6198 8.02799 52.7406 8.24674 52.7861 8.44727C52.8363 8.64323 52.8613 9.18783 52.8613 10.0811V13H50.1885V9.32227C50.1885 8.72982 50.1406 8.36296 50.0449 8.22168C49.9538 8.0804 49.71 8.00977 49.3135 8.00977V13H46.4355V1.93262ZM49.3135 3.82617V6.28711C49.637 6.28711 49.8626 6.24382 49.9902 6.15723C50.1224 6.06608 50.1885 5.77669 50.1885 5.28906V4.68066C50.1885 4.32975 50.1247 4.09961 49.9971 3.99023C49.874 3.88086 49.6462 3.82617 49.3135 3.82617ZM53.9824 1.93262H56.1357C57.5257 1.93262 58.4645 1.99642 58.9521 2.12402C59.4443 2.25163 59.818 2.46126 60.0732 2.75293C60.3285 3.0446 60.488 3.37044 60.5518 3.73047C60.6156 4.08594 60.6475 4.78776 60.6475 5.83594V9.71191C60.6475 10.7054 60.5996 11.3708 60.5039 11.708C60.4128 12.0407 60.251 12.3027 60.0186 12.4941C59.7861 12.681 59.499 12.8132 59.1572 12.8906C58.8154 12.9635 58.3005 13 57.6123 13H53.9824V1.93262ZM56.8604 3.82617V11.1064C57.2751 11.1064 57.5303 11.0244 57.626 10.8604C57.7217 10.6917 57.7695 10.2383 57.7695 9.5V5.2002C57.7695 4.69889 57.7536 4.3776 57.7217 4.23633C57.6898 4.09505 57.6169 3.99251 57.5029 3.92871C57.389 3.86035 57.1748 3.82617 56.8604 3.82617ZM70.1465 8.19531V10.3281L69.2559 10.8906L70.3652 13H67.4512L67.0684 12.2969C66.0892 12.9427 65.1621 13.2656 64.2871 13.2656C63.3704 13.2656 62.6647 12.9609 62.1699 12.3516C61.6751 11.7422 61.4277 11.0078 61.4277 10.1484C61.4277 9.46094 61.5736 8.92188 61.8652 8.53125C62.1569 8.14062 62.5944 7.82292 63.1777 7.57812C62.3444 6.97917 61.9277 6.16927 61.9277 5.14844C61.9277 4.26823 62.2246 3.5599 62.8184 3.02344C63.4121 2.48698 64.2298 2.21875 65.2715 2.21875C66.209 2.21875 66.946 2.48177 67.4824 3.00781C68.0241 3.53385 68.2949 4.20312 68.2949 5.01562C68.2949 5.86979 67.9668 6.6276 67.3105 7.28906L68.4277 9.30469L70.1465 8.19531ZM65.2793 5.97656C65.6335 5.51302 65.8105 5.07031 65.8105 4.64844C65.8105 4.46615 65.7585 4.29948 65.6543 4.14844C65.5501 3.9974 65.4043 3.92188 65.2168 3.92188C65.0449 3.92188 64.9147 3.97917 64.8262 4.09375C64.7376 4.20833 64.6934 4.38281 64.6934 4.61719C64.6934 5.10677 64.8887 5.5599 65.2793 5.97656ZM65.9902 10.8672L64.9668 9.16406C64.5762 9.51823 64.3809 9.90104 64.3809 10.3125C64.3809 10.6094 64.4408 10.8333 64.5605 10.9844C64.6855 11.1302 64.8678 11.2031 65.1074 11.2031C65.3626 11.2031 65.6569 11.0911 65.9902 10.8672ZM31.5742 13.9326H34.4453C35.3522 13.9326 36.0381 14.0033 36.5029 14.1445C36.9723 14.2858 37.3506 14.5729 37.6377 15.0059C37.9248 15.4342 38.0684 16.127 38.0684 17.084C38.0684 17.7311 37.9658 18.1823 37.7607 18.4375C37.5602 18.6927 37.1615 18.8887 36.5645 19.0254C37.2298 19.1758 37.681 19.4264 37.918 19.7773C38.1549 20.1237 38.2734 20.6569 38.2734 21.377V22.4023C38.2734 23.1497 38.1868 23.7035 38.0137 24.0635C37.8451 24.4235 37.5739 24.6696 37.2002 24.8018C36.8265 24.9339 36.0609 25 34.9033 25H31.5742V13.9326ZM34.4521 15.8262V18.2871C34.5752 18.2826 34.6709 18.2803 34.7393 18.2803C35.0218 18.2803 35.2018 18.2119 35.2793 18.0752C35.3568 17.9339 35.3955 17.5352 35.3955 16.8789C35.3955 16.5326 35.3636 16.291 35.2998 16.1543C35.236 16.013 35.1517 15.9242 35.0469 15.8877C34.9466 15.8512 34.7484 15.8307 34.4521 15.8262ZM34.4521 20.0098V23.1064C34.8577 23.0928 35.1152 23.029 35.2246 22.915C35.3385 22.8011 35.3955 22.5208 35.3955 22.0742V21.042C35.3955 20.568 35.3454 20.2809 35.2451 20.1807C35.1449 20.0804 34.8805 20.0234 34.4521 20.0098ZM45.8887 20.4131C45.8887 21.5251 45.8613 22.3135 45.8066 22.7783C45.7565 23.2386 45.5924 23.6602 45.3145 24.043C45.041 24.4258 44.6696 24.7197 44.2002 24.9248C43.7308 25.1299 43.1839 25.2324 42.5596 25.2324C41.9671 25.2324 41.4339 25.1367 40.96 24.9453C40.4906 24.7493 40.1123 24.4577 39.8252 24.0703C39.5381 23.6829 39.3672 23.2614 39.3125 22.8057C39.2578 22.3499 39.2305 21.5524 39.2305 20.4131V18.5195C39.2305 17.4076 39.2555 16.6214 39.3057 16.1611C39.3604 15.6963 39.5244 15.2725 39.7979 14.8896C40.0758 14.5068 40.4495 14.2129 40.9189 14.0078C41.3883 13.8027 41.9352 13.7002 42.5596 13.7002C43.152 13.7002 43.6829 13.7982 44.1523 13.9941C44.6263 14.1855 45.0068 14.4749 45.2939 14.8623C45.5811 15.2497 45.752 15.6712 45.8066 16.127C45.8613 16.5827 45.8887 17.3802 45.8887 18.5195V20.4131ZM43.0107 16.7764C43.0107 16.2614 42.9811 15.9333 42.9219 15.792C42.8672 15.6462 42.751 15.5732 42.5732 15.5732C42.4229 15.5732 42.3066 15.6325 42.2246 15.751C42.1471 15.8649 42.1084 16.2067 42.1084 16.7764V21.9443C42.1084 22.5869 42.1335 22.9834 42.1836 23.1338C42.2383 23.2842 42.3613 23.3594 42.5527 23.3594C42.7487 23.3594 42.874 23.2728 42.9287 23.0996C42.9834 22.9264 43.0107 22.514 43.0107 21.8623V16.7764ZM51.9385 13.9326L53.5859 25H50.6396L50.4961 23.0107H49.4639L49.293 25H46.3125L47.7754 13.9326H51.9385ZM50.4141 21.0488C50.2682 19.7956 50.1224 18.2484 49.9766 16.4072C49.6849 18.5218 49.5026 20.069 49.4297 21.0488H50.4141ZM54.0781 13.9326H56.1152C57.4733 13.9326 58.3916 13.985 58.8701 14.0898C59.3532 14.1947 59.7451 14.4635 60.0459 14.8965C60.3512 15.3249 60.5039 16.0107 60.5039 16.9541C60.5039 17.8154 60.3968 18.3942 60.1826 18.6904C59.9684 18.9867 59.5469 19.1644 58.918 19.2236C59.4876 19.3649 59.8704 19.554 60.0664 19.791C60.2624 20.028 60.3831 20.2467 60.4287 20.4473C60.4788 20.6432 60.5039 21.1878 60.5039 22.0811V25H57.8311V21.3223C57.8311 20.7298 57.7832 20.363 57.6875 20.2217C57.5964 20.0804 57.3525 20.0098 56.9561 20.0098V25H54.0781V13.9326ZM56.9561 15.8262V18.2871C57.2796 18.2871 57.5052 18.2438 57.6328 18.1572C57.765 18.0661 57.8311 17.7767 57.8311 17.2891V16.6807C57.8311 16.3298 57.7673 16.0996 57.6396 15.9902C57.5166 15.8809 57.2887 15.8262 56.9561 15.8262ZM61.625 13.9326H63.7783C65.1683 13.9326 66.1071 13.9964 66.5947 14.124C67.0869 14.2516 67.4606 14.4613 67.7158 14.7529C67.971 15.0446 68.1305 15.3704 68.1943 15.7305C68.2581 16.0859 68.29 16.7878 68.29 17.8359V21.7119C68.29 22.7054 68.2422 23.3708 68.1465 23.708C68.0553 24.0407 67.8936 24.3027 67.6611 24.4941C67.4287 24.681 67.1416 24.8132 66.7998 24.8906C66.458 24.9635 65.943 25 65.2549 25H61.625V13.9326ZM64.5029 15.8262V23.1064C64.9176 23.1064 65.1729 23.0244 65.2686 22.8604C65.3643 22.6917 65.4121 22.2383 65.4121 21.5V17.2002C65.4121 16.6989 65.3962 16.3776 65.3643 16.2363C65.3324 16.0951 65.2594 15.9925 65.1455 15.9287C65.0316 15.8604 64.8174 15.8262 64.5029 15.8262Z" fill="#ECDEF6"/>
<path d="M9.54818 11.9408L14.5338 11.8162M9.54818 11.9408L11.8836 15.9533M9.54818 11.9408L11.8836 9M9.54818 11.9408L8 10.7445M9.54818 11.9408L8 14.8318M14.5338 11.8162L11.8836 15.9533M14.5338 11.8162L11.8836 9M14.5338 11.8162L15.1111 10.919M14.5338 11.8162L15.1111 15.1558M11.8836 15.9533L8 14.8318M11.8836 15.9533L11.2538 17M11.8836 15.9533L15.1111 15.1558M11.8836 9L15.1111 10.919M11.8836 9L8 10.7445M15.1111 10.919V15.1558M8 10.7445V14.8318M8 14.8318L11.2538 17M11.2538 17L15.1111 15.1558" stroke="#ECDEF6" stroke-width="0.5" stroke-linecap="round" stroke-linejoin="round"/>
<path d="M22.5014 6.11445C19.2151 6.82561 18.0619 5.01475 17.0984 4.62071C16.135 4.22667 14.7795 4.55577 14.7795 4.55577C14.7795 4.55577 13.3642 5.52227 12.4142 6.30928C11.4923 6.77281 10.9599 6.91683 9.93299 6.59071C9.93299 6.59071 14.1534 3.25687 14.3621 3.08368C14.5708 2.91049 18.1187 2.39093 18.1187 2.39093M10.2576 6.7639C10.2576 6.7639 9.23732 7.41336 8.77354 7.62984C8.30976 7.84632 7.49709 7.81463 6.7793 7.43501C6.7793 7.43501 12.6461 2.80226 12.8548 2.69402M14.1302 5.16192C15.3194 5.70266 16.1402 5.55474 17.6781 5.07533M10.9301 2.88884C10.9301 2.88884 8.37821 3.66343 7.91553 3.68982C7.45285 3.71622 7.09562 3.56838 6.64769 3.02142C6.64769 3.02142 12.2519 1.24357 12.6693 1.24356C13.0866 1.24355 15.2896 1.4384 15.2896 1.4384M8.37932 6.11444C7.38219 6.54741 6.65365 6.3128 6 5.89749C6 5.89749 12.1097 2.14737 12.3214 2.0662C12.3214 2.0662 16.4027 1.15696 17.794 1.00543C19.1853 0.853903 23.5217 3.92796 27 3.38675M12.5533 6.30928C14.0566 6.90953 15.1041 7.45664 16.4027 7.84631C17.7013 8.23598 22.8615 7.77086 27 7.69477" stroke="#ECDEF6" stroke-width="0.5" stroke-linecap="round" stroke-linejoin="round"/>
<path d="M5.28434 19.8856C8.41416 19.1744 9.51252 20.9852 10.4301 21.3793C11.3476 21.7733 12.6385 21.4442 12.6385 21.4442C12.6385 21.4442 13.9865 20.4777 14.8913 19.6907C15.7692 19.2272 16.2763 19.0832 17.2543 19.4093C17.2543 19.4093 13.2349 22.7431 13.0361 22.9163C12.8374 23.0895 9.45843 23.6091 9.45843 23.6091M16.9451 19.2361C16.9451 19.2361 17.9168 18.5866 18.3585 18.3702C18.8002 18.1537 19.5742 18.1854 20.2578 18.565C20.2578 18.565 14.6704 23.1977 14.4716 23.306M13.257 20.8381C12.1244 20.2973 11.3427 20.4453 9.87802 20.9247M16.3047 23.1112C16.3047 23.1112 18.735 22.3366 19.1757 22.3102C19.6163 22.2838 19.9566 22.4316 20.3832 22.9786C20.3832 22.9786 15.0458 24.7564 14.6483 24.7564C14.2508 24.7565 12.1528 24.5616 12.1528 24.5616M18.734 19.8856C19.6836 19.4526 20.3775 19.6872 21 20.1025C21 20.1025 15.1812 23.8526 14.9796 23.9338C14.9796 23.9338 11.0927 24.843 9.76761 24.9946C8.44253 25.1461 4.3127 22.072 1.00001 22.6133M14.7587 19.6907C13.3271 19.0905 12.3294 18.5434 11.0927 18.1537C9.85595 17.764 4.94144 18.2291 0.999999 18.3052" stroke="#ECDEF6" stroke-width="0.5" stroke-linecap="round" stroke-linejoin="round"/>
</svg>
